<?xml version="1.0" encoding="UTF-8"?>
<svg width="48px" height="48px" viewBox="0 0 48 48" version="1.1" xmlns="http://www.w3.org/2000/svg" xmlns:xlink="http://www.w3.org/1999/xlink">
    <title>Icons/Browser/Arbitrum</title>
    <g id="Icons/Browser/Arbitrum" stroke="none" stroke-width="1" fill="none" fill-rule="evenodd">
        <g id="Group" fill="#FFFFFF">
            <polygon id="Shape" points="0 0 48 0 48 48 0 48"></polygon>
        </g>
        <g id="Group" transform="translate(4.000000, 4.000000)">
            <circle id="Oval" fill="#2D374B" cx="20" cy="20" r="20"></circle>
            <g id="Arbitrum" transform="translate(5.000000, 3.000000)" fill-rule="nonzero">
                <path d="M18.7948163,15.4326404 L21.268315,11.2354487 L27.9354673,21.6197865 L27.9386586,23.6127242 L27.9169442,9.89921544 C27.9011267,9.56399511 27.7231102,9.2573573 27.4391581,9.0764965 L15.4357448,2.17194272 C15.1551227,2.03388633 14.7988817,2.03548195 14.5186064,2.17631335 C14.4807276,2.19518336 14.4450688,2.21585713 14.4112138,2.23840403 L14.3693112,2.26469718 L2.71818459,9.01641769 L2.67302142,9.03695271 C2.61488511,9.06366211 2.55605506,9.09765589 2.50097125,9.13713031 C2.28001166,9.29551359 2.13335276,9.5297932 2.08590021,9.79258596 C2.07875458,9.83240725 2.07348207,9.87292229 2.07105395,9.91392296 L2.08936896,21.0890673 L8.2994783,11.4636233 C9.08140471,10.1873301 10.7848402,9.77621345 12.3662449,9.79855222 L14.2222361,9.84753102 L3.28629704,27.3856873 L4.57542458,28.1277924 L15.6422744,9.86536041 L20.5339105,9.84760039 L9.49557387,28.570891 L14.0955572,31.2167174 L14.6451465,31.5327902 C14.8776224,31.627279 15.1517233,31.6320659 15.3861416,31.547359 L27.5582057,24.4934407 L25.2310884,25.8419533 L18.7948163,15.4326404 Z M19.738456,29.0250202 L15.092477,21.7331454 L17.9285992,16.9205275 L24.0302753,26.5378546 L19.738456,29.0250202 Z" id="Shape" fill="#2D374B"></path>
                <polygon id="Path" fill="#28A0F0" points="15.0925463 21.733076 19.738456 29.0250202 24.0303447 26.5377852 17.9285992 16.9204581"></polygon>
                <path d="M27.9386586,23.6126548 L27.9354673,21.6197172 L21.268315,11.2353793 L18.7948163,15.432571 L25.231019,25.8418145 L27.5581363,24.4933019 C27.7863803,24.3078624 27.924506,24.0358427 27.9390054,23.7423168 L27.9386586,23.6126548 Z" id="Path" fill="#28A0F0"></path>
                <path d="M6.93750694e-05,25.4920254 L3.28629704,27.3856873 L14.2221667,9.84760039 L12.3661755,9.79862159 C10.7847708,9.77628282 9.08126596,10.1873995 8.29940892,11.4636926 L2.08929959,21.0891366 L6.93750694e-05,24.2991905 L6.93750694e-05,25.4920254 Z" id="Path" fill="#FFFFFF"></path>
                <polygon id="Path" fill="#FFFFFF" points="20.5339105 9.84760039 15.6422744 9.86536041 4.57542458 28.1277924 8.44363969 30.3549403 9.49557387 28.570891"></polygon>
                <path d="M30,9.82241724 C29.9590687,8.79941247 29.4051782,7.86291841 28.5375735,7.31769974 L16.3768176,0.324345868 C15.5185786,-0.107791439 14.4464563,-0.108346439 13.5866911,0.324068368 C13.4850566,0.375336544 1.76066989,7.17499522 1.76066989,7.17499522 C1.5984016,7.25283405 1.44209957,7.34551914 1.2950938,7.45076112 C0.520590521,8.00583105 0.0484931735,8.86844066 0,9.81610411 L0,24.2991905 L2.08923021,21.0891366 L2.07098457,9.91399233 C2.0734127,9.87313042 2.07854645,9.83289288 2.08583084,9.79321034 C2.13307526,9.53027882 2.2798729,9.29572171 2.50090188,9.13719968 C2.55605506,9.09772527 14.4807276,2.19525274 14.5186064,2.17631335 C14.7988817,2.03555133 15.1551227,2.03388633 15.4357448,2.17194272 L27.4391581,9.07635775 C27.7231102,9.25721855 27.9011267,9.56385636 27.9169442,9.89907669 L27.9169442,23.7423168 C27.9024448,24.0358427 27.7863803,24.3078624 27.5581363,24.4933019 L25.231019,25.8418145 L24.0302753,26.5377158 L19.738456,29.0249508 L15.3860723,31.5472202 C15.1516539,31.6319272 14.877553,31.6271403 14.6450771,31.5326515 L9.4955045,28.5708216 L8.44357032,30.3549403 L13.0713037,33.0193592 C13.2243451,33.1064249 13.3606671,33.18357 13.4725691,33.2463544 C13.6457986,33.3434795 13.763875,33.408484 13.8055694,33.4287415 C14.1344766,33.5885123 14.6077534,33.6814749 15.0342019,33.6814749 C15.4251998,33.6814749 15.8064852,33.6096717 16.1672355,33.4683546 L28.8091076,26.1471342 C29.5347014,25.5849186 29.9615662,24.7370859 30,23.8186294 L30,9.82241724 Z" id="Path" fill="#96BEDC"></path>
            </g>
        </g>
    </g>
</svg>