<?xml version="1.0" encoding="UTF-8"?>
<svg width="48px" height="48px" viewBox="0 0 48 48" version="1.1" xmlns="http://www.w3.org/2000/svg" xmlns:xlink="http://www.w3.org/1999/xlink">
    <title>Icons/Browser/Avalanche</title>
    <g id="Icons/Browser/Avalanche" stroke="none" stroke-width="1" fill="none" fill-rule="evenodd">
        <g id="Group" fill="#FFFFFF">
            <polygon id="Shape" points="0 0 48 0 48 48 0 48"></polygon>
        </g>
        <g id="Group-2" transform="translate(4.000000, 4.000000)">
            <circle id="Oval" fill="#FF2938" cx="20" cy="20" r="20"></circle>
            <g id="Group" transform="translate(6.000000, 6.000000)" fill="#FFFFFF">
                <path d="M6.47841039,23.8286104 L2.63184935,23.8286104 C1.48463377,23.8286104 0.944764675,23.8286104 0.60734961,23.6257013 C0.269933299,23.3551558 0,23.0166623 0,22.5432078 C0,22.1373896 0.269933299,21.6639351 0.809800519,20.7167143 L11.5396364,1.84339481 C12.0795117,0.828693506 12.3494338,0.355145455 12.7543481,0.152205195 C13.1592312,-0.0507350649 13.631626,-0.0507350649 13.9690286,0.152205195 C14.3064623,0.355145455 14.5763844,0.828693506 15.1837403,1.84339481 L17.1407688,5.29334805 C17.7480935,6.37571688 18.0855273,6.91687013 18.2204883,7.45805455 C18.3554494,8.06687532 18.3554494,8.74333247 18.2204883,9.35215325 C18.0855273,9.89333766 17.7480935,10.4344909 17.1407688,11.5168597 L11.8770701,20.7167143 C11.2697143,21.7992078 10.9322805,22.3402987 10.5273974,22.7461169 C10.0550026,23.2195714 9.51515844,23.4904286 8.9078026,23.6933377 C8.36792727,23.8286104 7.69309091,23.8286104 6.47841039,23.8286104 Z" id="Path"></path>
                <path d="M25.0360831,23.8289221 L19.1650286,23.8289221 C18.0177974,23.8289221 17.4779532,23.8289221 17.1405195,23.626013 C16.8031169,23.4231039 16.5331636,23.0172857 16.5331636,22.5438312 C16.5331636,22.1377013 16.8031169,21.6642468 17.3429922,20.6497013 L20.2447481,15.6437377 C20.7846234,14.6966727 21.0545455,14.2231558 21.4594597,14.0202156 C21.8643429,13.8172753 22.2692571,13.8172753 22.6741714,14.0202156 C23.011574,14.2231558 23.2814961,14.6966727 23.8888519,15.6437377 L26.790639,20.6497013 C27.3305143,21.5966104 27.6679169,22.1377013 27.6004364,22.5438312 C27.6004364,22.9496494 27.3305143,23.3554675 26.9930805,23.626013 C26.7231584,23.8289221 26.1832831,23.8289221 25.0360831,23.8289221 Z" id="Path"></path>
            </g>
        </g>
    </g>
</svg>