<?xml version="1.0" encoding="UTF-8"?>
<svg width="48px" height="48px" viewBox="0 0 48 48" version="1.1" xmlns="http://www.w3.org/2000/svg" xmlns:xlink="http://www.w3.org/1999/xlink">
    <title>Icons/Browser/BSC</title>
    <g id="Icons/Browser/BSC" stroke="none" stroke-width="1" fill="none" fill-rule="evenodd">
        <g id="Group" fill="#FFFFFF">
            <polygon id="Shape" points="0 0 48 0 48 48 0 48"></polygon>
        </g>
        <g id="Group-2" transform="translate(4.000000, 4.000000)">
            <circle id="Oval" fill="#F3BA2E" cx="20" cy="20" r="20"></circle>
            <g id="svg0-3" transform="translate(4.000000, 4.000000)" fill="#FFFFFF">
                <path d="M9.78054973,13.44672 L15.9918441,7.23248 L22.2063368,13.44992 L25.8205297,9.83392 L15.9918441,0 L6.16651674,9.83072 L9.78054973,13.44672 M9.5952024e-05,15.999504 L3.6144008,12.383392 L7.22846577,15.99928 L3.6141929,19.61536 L9.5952024e-05,15.999504 Z M9.78054973,18.55328 L15.9918441,24.76752 L22.2061769,18.55024 L25.8222889,22.16432 L25.8205297,22.16624 L15.9918441,32 L6.1661969,22.1696 L6.16107946,22.16448 L9.78054973,18.55328 M24.7558301,16.001488 L28.3701349,12.385392 L31.9841999,16.001264 L28.369911,19.617376 L24.7558301,16.001488 Z" id="Shape"></path>
                <polyline id="Path" points="19.6576912 15.99808 19.6592904 15.99808 15.9918441 12.3288 13.2815192 15.04048 13.2813593 15.04048 12.969995 15.35216 12.3277561 15.99488 12.3226387 15.99984 12.3277561 16.00512 15.9918441 19.6712 19.6592904 16.00192 19.6610495 15.99984 19.6576912 15.99808"></polyline>
            </g>
        </g>
    </g>
</svg>