<?xml version="1.0" encoding="UTF-8"?>
<svg width="48px" height="48px" viewBox="0 0 48 48" version="1.1" xmlns="http://www.w3.org/2000/svg" xmlns:xlink="http://www.w3.org/1999/xlink">
    <title>Icons/Browser/Gnosis</title>
    <g id="Icons/Browser/Gnosis" stroke="none" stroke-width="1" fill="none" fill-rule="evenodd">
        <g id="Group">
            <polygon id="Shape" fill="#FFFFFF" points="0 0 48 0 48 48 0 48"></polygon>
            <g transform="translate(4.000000, 4.000000)">
                <circle id="Oval" fill="#62A7A5" cx="20" cy="20" r="20"></circle>
                <path d="M17.5,7.5 L7.5,7.5 L7.5,12.5 L17.5,12.5 L17.5,7.5 Z M32.5,7.5 L22.5,7.5 L22.5,12.5 L32.5,12.5 L32.5,7.5 Z M22.5,27.5 L27.5,27.5 L27.5,22.5 L32.5,22.5 L32.5,27.5 L32.5,32.5 L27.5,32.5 L22.5,32.5 L22.5,27.5 Z M17.5,27.5 L12.5,27.5 L12.5,22.5 L7.5,22.5 L7.5,27.5 L7.5,32.5 L12.5,32.5 L17.5,32.5 L17.5,27.5 Z" id="Shape" fill="#FFFFFF"></path>
            </g>
        </g>
    </g>
</svg>