<?xml version="1.0" encoding="UTF-8"?>
<svg width="48px" height="48px" viewBox="0 0 48 48" version="1.1" xmlns="http://www.w3.org/2000/svg" xmlns:xlink="http://www.w3.org/1999/xlink">
    <title>Icons/Browser/Optimism</title>
    <g id="Icons/Browser/Optimism" stroke="none" stroke-width="1" fill="none" fill-rule="evenodd">
        <g id="Group" fill="#FFFFFF">
            <polygon id="Shape" points="0 0 48 0 48 48 0 48"></polygon>
        </g>
        <g id="Optimistic-Ethereum-L2-Explorer-6" transform="translate(4.000000, 4.000000)" fill-rule="nonzero">
            <circle id="Ellipse_11" fill="#FF0420" cx="20" cy="20" r="20"></circle>
            <path d="M14.1642623,25.3039344 C13.1236648,25.3483242 12.0968159,25.0534101 11.2383607,24.4636066 C10.4854581,23.8885477 10.0644846,22.9792596 10.1131148,22.0331148 C10.1176863,21.7615537 10.1427852,21.490727 10.1881967,21.2229508 C10.3182514,20.5016393 10.5032787,19.6363934 10.7432787,18.6272131 C11.4234973,15.8763934 13.1789071,14.5009836 16.0095082,14.5009836 C16.7189824,14.4893668 17.4234124,14.6221098 18.08,14.8911475 C18.6628223,15.1195726 19.1642955,15.516596 19.5203279,16.0314754 C19.879356,16.5619891 20.0628404,17.1917994 20.044918,17.8321311 C20.0397703,18.098661 20.0146728,18.3644312 19.9698361,18.6272131 C19.8196721,19.5174863 19.6396721,20.3827322 19.4298361,21.2229508 C19.0801093,22.593224 18.4749727,23.6184699 17.6144262,24.2986885 C16.7547541,24.9688525 15.6046995,25.3039344 14.1642623,25.3039344 Z M14.3744262,23.1432787 C14.8940966,23.1576514 15.4010992,22.9815764 15.8,22.6481967 C16.240854,22.2483803 16.5407701,21.7168573 16.655082,21.1327869 C16.8852459,20.1928962 17.0601093,19.3726776 17.1796721,18.6721311 C17.2199159,18.4594142 17.2400049,18.2433753 17.2396762,18.0268852 C17.2396762,17.1165027 16.7645902,16.6614208 15.8144262,16.6616393 C15.2905541,16.6490722 14.779534,16.8247244 14.3740984,17.1567213 C13.9413908,17.5607583 13.6473024,18.0911042 13.5337705,18.6721311 C13.3536612,19.3422951 13.1736612,20.1625137 12.9937705,21.1327869 C12.9530584,21.3403518 12.9329607,21.5514324 12.933747,21.7629508 C12.933747,22.6831694 13.4139891,23.1432787 14.3744262,23.1432787 Z" id="Path_139" fill="#FFFFFF"></path>
            <path d="M20.7360656,25.1540984 C20.6395078,25.1597337 20.545633,25.121122 20.4809836,25.0491803 C20.4310707,24.9685348 20.4149332,24.8714741 20.4360656,24.7790164 L22.5065574,15.0262295 C22.5248839,14.9186142 22.5834999,14.822015 22.6704918,14.7560656 C22.7509008,14.6897159 22.8515003,14.6527138 22.9557377,14.6511475 L26.9468852,14.6511475 C27.8865472,14.605039 28.8180181,14.8457395 29.6177049,15.3413115 C30.2866287,15.7794763 30.6745434,16.5382286 30.6380328,17.3370492 C30.6365967,17.5996726 30.6063613,17.8613463 30.5478689,18.117377 C30.382417,19.1283058 29.8411445,20.039405 29.032459,20.6681967 C28.2822951,21.2183607 27.2520219,21.4934426 25.9416393,21.4934426 L23.9163934,21.4934426 L23.2262295,24.7793443 C23.2078716,24.8869479 23.1492621,24.9835363 23.0622951,25.0495082 C22.9819735,25.1157881 22.8815015,25.1527859 22.777377,25.1544262 L20.7360656,25.1540984 Z M26.047541,19.4222951 C26.4406799,19.430963 26.825703,19.3097285 27.1429508,19.077377 C27.4693623,18.8376693 27.6941785,18.48442 27.7731148,18.0872131 C27.8009886,17.938727 27.8160169,17.7881154 27.8180328,17.6370492 C27.8353017,17.3899787 27.7418337,17.1480192 27.5629508,16.9767213 C27.3125854,16.7918055 27.0025462,16.7062935 26.6927869,16.7367213 L24.892459,16.7367213 L24.3222951,19.4222951 L26.047541,19.4222951 Z" id="Path_140" fill="#FFFFFF"></path>
        </g>
    </g>
</svg>