<?xml version="1.0" encoding="UTF-8"?>
<svg width="48px" height="48px" viewBox="0 0 48 48" version="1.1" xmlns="http://www.w3.org/2000/svg" xmlns:xlink="http://www.w3.org/1999/xlink">
    <title>Icons/Browser/Polygon</title>
    <g id="Icons/Browser/Polygon" stroke="none" stroke-width="1" fill="none" fill-rule="evenodd">
        <g id="Group" fill="#FFFFFF">
            <polygon id="Shape" points="0 0 48 0 48 48 0 48"></polygon>
        </g>
        <g id="Group" transform="translate(4.000000, 4.000000)">
            <circle id="Oval" fill="#8247E5" cx="20" cy="20" r="20"></circle>
            <path d="M27.1009066,15.33184 C26.5845251,15.02767 25.9139364,15.02767 25.3466241,15.33184 L21.3223848,17.6661676 L18.588392,19.1884321 L14.5641527,21.5220523 C14.0484786,21.8269297 13.3771825,21.8269297 12.8098702,21.5220523 L9.61113404,19.6956178 C9.09545985,19.3907405 8.73399276,18.832624 8.73399276,18.2242841 L8.73399276,14.6216385 C8.73399276,14.0125912 9.0438217,13.4544747 9.61113404,13.1503048 L12.758232,11.3740937 C13.2746136,11.0699237 13.9452022,11.0699237 14.5125146,11.3740937 L17.6596126,13.1503048 C18.1752868,13.4544747 18.5367539,14.0125912 18.5367539,14.6216385 L18.5367539,16.9552587 L21.2707466,15.3827708 L21.2707466,13.0484432 C21.2707466,12.4393959 20.9616251,11.8812794 20.3936054,11.5771094 L14.5641527,8.22833968 C14.0484786,7.92388677 13.3771825,7.92388677 12.8098702,8.22833968 L6.87714127,11.5771094 C6.30982893,11.8812794 6,12.4393959 6,13.0484432 L6,19.796772 C6,20.4058193 6.30982893,20.9639358 6.87714127,21.2681058 L12.8098702,24.6175122 C13.3262518,24.9216821 13.9968404,24.9216821 14.5641527,24.6175122 L18.588392,22.3341154 L21.3223848,20.7609201 L25.3466241,18.4775233 C25.8622983,18.1733533 26.5328869,18.1733533 27.1009066,18.4775233 L30.2480046,20.2537343 C30.7636788,20.5579043 31.1244385,21.1160208 31.1244385,21.7250681 L31.1244385,25.3277137 C31.1244385,25.9367609 30.815317,26.4948774 30.2480046,26.7990474 L27.1009066,28.6254819 C26.5845251,28.9303592 25.9139364,28.9303592 25.3466241,28.6254819 L22.1995261,26.8499782 C21.6838519,26.5451009 21.3223848,25.9869844 21.3223848,25.3786444 L21.3223848,23.0443169 L18.588392,24.6175122 L18.588392,26.9511324 C18.588392,27.5601797 18.8975136,28.1182962 19.4655333,28.4224661 L25.3982622,31.7718725 C25.9139364,32.0760425 26.5845251,32.0760425 27.1525448,31.7718725 L33.0852737,28.4224661 C33.6009479,28.1182962 33.962415,27.5601797 33.962415,26.9511324 L33.962415,20.2028036 C33.962415,19.5937563 33.652586,19.0356398 33.0852737,18.7314698 L27.1009066,15.33184 Z" id="Path" fill="#FFFFFF" fill-rule="nonzero"></path>
        </g>
    </g>
</svg>